<svg width="467" height="383" viewBox="0 0 467 383" fill="none" xmlns="http://www.w3.org/2000/svg">
<g opacity="0.3">
<line x1="247.682" y1="73.6983" x2="392.568" y2="218.584" stroke="#EC4899" stroke-width="32"/>
<line x1="238.517" y1="221.897" x2="390.897" y2="69.5173" stroke="#EC4899" stroke-width="32"/>
</g>
<g filter="url(#filter0_d_639_2125)">
<path fill-rule="evenodd" clip-rule="evenodd" d="M122.39 361.864L122.379 361.879C118.902 366.857 114.16 370.232 108.317 371.89L108.287 371.898L108.256 371.907C102.946 373.342 96.485 374 88.9998 374H64.7998V309.28H88.9998C96.7444 309.28 103.382 310.001 108.751 311.596C114.582 313.309 119.29 316.625 122.606 321.548C123.638 323.051 124.489 324.702 125.175 326.483V310.118L129.804 309.774C137.653 309.19 145.01 308.896 151.871 308.896C158.159 308.896 163.562 309.418 167.925 310.596C172.449 311.753 176.334 313.924 179.033 317.428C181.865 320.955 182.983 325.447 182.983 330.312C182.983 334.944 181.919 339.252 179.199 342.651L179.177 342.679L179.154 342.706C178.635 343.338 178.07 343.909 177.466 344.425C178.711 345.942 179.603 347.704 180.126 349.663L180.13 349.677L180.986 352.961L195.086 309.28H224.975L244.959 374H216.48L213.6 362H205.548L202.668 374H157.898L153.732 356.357C153.611 355.873 153.397 355.046 153.083 353.856L153.045 353.711L153.025 353.61C152.839 353.613 152.649 353.616 152.455 353.619V374H125.175V356.427C124.444 358.398 123.525 360.211 122.4 361.848L122.39 361.864ZM147.455 348.648C150.911 348.648 153.535 348.616 155.327 348.552C156.031 348.744 156.575 349.16 156.959 349.8C157.343 350.376 157.663 351.304 157.919 352.584C158.239 353.8 158.463 354.664 158.591 355.176L161.855 369H179.999L175.295 350.952C174.886 349.418 174.15 348.109 173.088 347.024C172.82 346.751 172.532 346.492 172.223 346.248C170.765 344.98 168.931 344.246 166.72 344.046C166.699 344.044 166.677 344.042 166.655 344.04V343.464C166.671 343.462 166.688 343.46 166.705 343.458C169.581 343.127 171.884 342.34 173.611 341.097C174.251 340.637 174.812 340.113 175.295 339.528C177.087 337.288 177.983 334.216 177.983 330.312C177.983 326.152 177.023 322.888 175.103 320.52C173.247 318.088 170.431 316.392 166.655 315.432C162.879 314.408 157.951 313.896 151.871 313.896C145.151 313.896 137.919 314.184 130.175 314.76V369H147.455V348.648ZM158.495 325.896C159.903 326.856 160.607 328.648 160.607 331.272C160.607 334.088 160.223 335.88 159.455 336.648C158.623 337.48 155.743 337.896 150.815 337.896C149.151 337.896 148.031 337.864 147.455 337.8V324.648C149.631 324.52 151.071 324.456 151.775 324.456C154.911 324.456 157.151 324.936 158.495 325.896ZM152.455 329.465V332.878C153.749 332.847 154.775 332.779 155.559 332.687C155.588 332.306 155.607 331.838 155.607 331.272C155.607 330.551 155.526 330.124 155.465 329.91C155.339 329.858 155.115 329.781 154.759 329.705C154.204 329.586 153.448 329.494 152.455 329.465ZM156.853 332.454C156.85 332.456 156.847 332.457 156.843 332.458C156.89 332.439 156.898 332.44 156.853 332.454ZM198.726 369L201.606 357H217.542L220.422 369H238.182L221.286 314.28H198.726L181.062 369H198.726ZM118.472 324.36C115.848 320.456 112.136 317.8 107.336 316.392C102.6 314.984 96.4878 314.28 88.9998 314.28H69.7998V369H88.9998C96.2318 369 102.216 368.36 106.952 367.08C111.688 365.736 115.464 363.048 118.28 359.016C121.096 354.92 122.504 348.968 122.504 341.16C122.504 333.864 121.16 328.264 118.472 324.36ZM98.3432 334.255L98.3233 334.164C98.0347 332.845 97.5809 332.14 97.1763 331.735L97.0921 331.651L97.0121 331.563C96.5538 331.059 95.2777 330.237 92.0798 330.064V352.288C92.109 352.288 92.1383 352.288 92.1678 352.288C94.3732 352.288 96.2433 352.199 97.7985 352.036C97.9278 352.018 98.0492 352 98.1628 351.981C98.2886 351.379 98.4138 350.562 98.5206 349.494C98.8272 346.429 98.9758 343.653 98.9758 341.16C98.9758 337.953 98.727 335.742 98.3664 334.345L98.3432 334.255ZM98.4078 357C96.6158 357.192 94.5358 357.288 92.1678 357.288C89.8638 357.288 88.1678 357.224 87.0798 357.096V325.224C88.7438 325.096 89.9918 325.032 90.8238 325.032C95.4958 325.032 98.7918 326.088 100.712 328.2C101.928 329.416 102.76 331.048 103.208 333.096C103.72 335.08 103.976 337.768 103.976 341.16C103.976 343.848 103.816 346.792 103.496 349.992C103.176 353.192 102.632 355.176 101.864 355.944C101.416 356.392 100.264 356.744 98.4078 357ZM203.814 346.344H215.238L209.862 326.088H209.478L203.814 346.344ZM276.976 374H247.394L230.703 309.28H259.763L263.273 328.632L267.014 309.28H293.295L297.122 328.597L300.671 309.28H328.953L312.262 374H282.732L279.936 359.035L276.976 374ZM272.868 369H251.268L237.156 314.28H255.588L262.884 354.504H263.364L271.14 314.28H289.188L297.156 354.504H297.444L304.836 314.28H322.5L308.388 369H286.884L280.356 334.056H279.78L272.868 369ZM339.763 349.425L339.715 347.426C339.588 342.247 339.143 331.682 338.375 315.672L338.374 315.66L337.871 304.09L363.376 302.673L363.627 307.694C363.697 309.102 363.729 311.091 363.729 313.608C363.729 320.409 363.403 328.397 362.758 337.554C362.503 341.645 362.344 344.244 362.281 345.373L362.129 348.11L359.74 349.454C358.733 350.02 357.67 350.507 356.557 350.919C357.667 351.495 358.695 352.26 359.617 353.217C361.966 355.586 363.153 358.583 363.153 361.896C363.153 365.255 362.17 368.481 359.754 371.012L359.714 371.054L359.673 371.095C357.225 373.543 354.072 374.576 350.761 374.576C347.483 374.576 344.45 373.488 342.029 371.177L341.945 371.096L341.864 371.012C339.448 368.481 338.465 365.255 338.465 361.896C338.465 358.564 339.666 355.551 342.042 353.176L342.081 353.137L342.121 353.099C342.348 352.882 342.58 352.675 342.816 352.478L339.763 349.425ZM356.041 356.712C354.697 355.304 353.001 354.6 350.953 354.6C348.841 354.6 347.049 355.304 345.577 356.712C344.169 358.12 343.465 359.848 343.465 361.896C343.465 364.264 344.137 366.152 345.481 367.56C346.889 368.904 348.649 369.576 350.761 369.576C353.001 369.576 354.793 368.904 356.137 367.56C357.481 366.152 358.153 364.264 358.153 361.896C358.153 359.848 357.449 358.12 356.041 356.712ZM357.769 337.224C358.409 328.136 358.729 320.264 358.729 313.608C358.729 313.382 358.729 313.162 358.728 312.946C358.723 310.776 358.691 309.108 358.633 307.944L343.081 308.808L343.369 315.432C344.137 331.432 344.585 342.056 344.713 347.304L345.193 347.784C350.185 347.72 354.217 346.824 357.289 345.096C357.353 343.944 357.513 341.32 357.769 337.224Z" fill="#6B21A8"/>
</g>
<g opacity="0.3">
<circle cx="94" cy="148" r="78" stroke="#6B21A8" stroke-width="32"/>
</g>
<defs>
<filter id="filter0_d_639_2125" x="60.7998" y="302.673" width="306.929" height="79.9032" filterUnits="userSpaceOnUse" color-interpolation-filters="sRGB">
<feFlood flood-opacity="0" result="BackgroundImageFix"/>
<feColorMatrix in="SourceAlpha" type="matrix" values="0 0 0 0 0 0 0 0 0 0 0 0 0 0 0 0 0 0 127 0" result="hardAlpha"/>
<feOffset dy="4"/>
<feGaussianBlur stdDeviation="2"/>
<feComposite in2="hardAlpha" operator="out"/>
<feColorMatrix type="matrix" values="0 0 0 0 0 0 0 0 0 0 0 0 0 0 0 0 0 0 0.25 0"/>
<feBlend mode="normal" in2="BackgroundImageFix" result="effect1_dropShadow_639_2125"/>
<feBlend mode="normal" in="SourceGraphic" in2="effect1_dropShadow_639_2125" result="shape"/>
</filter>
</defs>
</svg>
