<svg width="395" height="352" viewBox="0 0 395 352" fill="none" xmlns="http://www.w3.org/2000/svg">
<g opacity="0.3">
<circle cx="188.5" cy="116.5" r="100.5" stroke="#6B21A8" stroke-width="32"/>
</g>
<g filter="url(#filter0_d_639_2122)">
<path fill-rule="evenodd" clip-rule="evenodd" d="M51.1638 343H21.5818L4.89087 278.28H33.9506L37.4608 297.632L41.202 278.28H67.4826L71.3092 297.597L74.8591 278.28H148.848L160.925 296.676V278.28H210.254L222.331 296.676V278.28H297.097V278.919L299.054 278.774C306.903 278.19 314.26 277.896 321.121 277.896C327.409 277.896 332.812 278.418 337.175 279.596C341.699 280.753 345.584 282.924 348.283 286.428C351.115 289.955 352.233 294.448 352.233 299.312C352.233 303.944 351.169 308.252 348.449 311.652L348.427 311.679L348.405 311.707C347.885 312.338 347.32 312.909 346.716 313.425C347.961 314.943 348.854 316.704 349.376 318.664L349.38 318.677L349.383 318.691L355.719 343H327.148L322.99 325.389C322.988 325.378 322.985 325.367 322.982 325.357C322.861 324.873 322.646 324.045 322.334 322.857L322.295 322.712L322.275 322.61C322.09 322.613 321.899 322.616 321.705 322.619V343H224.224L212.363 324.635V343H162.818L150.957 324.635V343H97.9272V298.497L86.4501 343H56.9195L54.1239 328.035L51.1638 343ZM47.0559 338H25.4559L11.3439 283.28H29.7759L37.0719 323.504H37.5519L45.3279 283.28H63.3759L71.3439 323.504H71.6319L79.0239 283.28H96.6879L82.5759 338H61.0719L54.5439 303.056H53.9679L47.0559 338ZM165.541 338H181.861V283.28H165.925V313.616H165.637C164.535 311.473 162.964 308.862 160.925 305.781C160.833 305.642 160.739 305.501 160.645 305.36L146.149 283.28H129.925V338H145.957V315.92L146.053 308.432H146.341L146.343 308.436L150.661 314.96L165.541 338ZM226.947 338H243.267V283.28H227.331V313.616H227.043C225.941 311.473 224.37 308.862 222.331 305.781C222.239 305.642 222.145 305.501 222.051 305.36L207.555 283.28H191.331V338H207.363V315.92L207.459 308.432H207.747L207.75 308.436L212.067 314.96L226.947 338ZM294.425 321.288V299.8H293.545V320.152H274.537V321.288H294.425ZM269.537 326.288V315.152H288.545V304.784H269.537V294.8H292.097V283.28H252.257V338H292.001V326.288H269.537ZM316.705 317.648C320.161 317.648 322.785 317.616 324.577 317.552C325.281 317.744 325.825 318.16 326.209 318.8C326.593 319.376 326.913 320.304 327.169 321.584C327.489 322.8 327.713 323.664 327.841 324.176L331.105 338H349.249L344.545 319.952C344.136 318.418 343.4 317.109 342.338 316.025C342.07 315.752 341.782 315.493 341.473 315.248C340.015 313.981 338.181 313.247 335.971 313.046C335.949 313.044 335.927 313.042 335.905 313.04V312.464C335.922 312.462 335.938 312.46 335.955 312.458C338.832 312.128 341.134 311.341 342.861 310.097C343.501 309.637 344.063 309.114 344.545 308.528C346.337 306.288 347.233 303.216 347.233 299.312C347.233 295.152 346.273 291.888 344.353 289.52C342.497 287.088 339.681 285.392 335.905 284.432C332.129 283.408 327.201 282.896 321.121 282.896C314.401 282.896 307.169 283.184 299.425 283.76V338H316.705V317.648ZM327.745 294.896C329.153 295.856 329.857 297.648 329.857 300.272C329.857 303.088 329.473 304.88 328.705 305.648C327.873 306.48 324.993 306.896 320.065 306.896C318.401 306.896 317.281 306.864 316.705 306.8V293.648C318.881 293.52 320.321 293.456 321.025 293.456C324.161 293.456 326.401 293.936 327.745 294.896ZM321.705 298.466V301.878C322.999 301.847 324.025 301.78 324.809 301.687C324.838 301.306 324.857 300.838 324.857 300.272C324.857 299.551 324.776 299.125 324.715 298.91C324.589 298.858 324.365 298.781 324.009 298.705C323.454 298.586 322.698 298.494 321.705 298.466ZM326.093 301.458C326.097 301.457 326.1 301.456 326.104 301.455C326.123 301.448 326.133 301.444 326.133 301.444C326.133 301.443 326.119 301.447 326.093 301.458ZM366.232 318.425L366.183 316.426C366.057 311.247 365.612 300.682 364.844 284.672L364.843 284.661L364.34 273.09L389.845 271.673L390.096 276.694C390.166 278.102 390.198 280.091 390.198 282.608C390.198 289.41 389.872 297.398 389.227 306.554C388.971 310.645 388.813 313.244 388.75 314.373L388.598 317.11L386.209 318.454C385.202 319.02 384.139 319.507 383.026 319.919C384.136 320.495 385.164 321.26 386.086 322.217C388.434 324.586 389.622 327.583 389.622 330.896C389.622 334.255 388.639 337.481 386.223 340.012L386.183 340.054L386.141 340.096C383.694 342.543 380.541 343.576 377.23 343.576C373.952 343.576 370.919 342.488 368.498 340.177L368.413 340.097L368.333 340.012C365.917 337.481 364.934 334.255 364.934 330.896C364.934 327.564 366.135 324.552 368.51 322.177L368.55 322.137L368.59 322.099C368.817 321.882 369.048 321.675 369.285 321.479L366.232 318.425ZM382.51 325.712C381.166 324.304 379.47 323.6 377.422 323.6C375.31 323.6 373.518 324.304 372.046 325.712C370.638 327.12 369.934 328.848 369.934 330.896C369.934 333.264 370.606 335.152 371.95 336.56C373.358 337.904 375.118 338.576 377.23 338.576C379.47 338.576 381.262 337.904 382.606 336.56C383.95 335.152 384.622 333.264 384.622 330.896C384.622 328.848 383.918 327.12 382.51 325.712ZM384.238 306.224C384.878 297.136 385.198 289.264 385.198 282.608C385.198 282.383 385.198 282.162 385.197 281.946C385.192 279.776 385.16 278.108 385.102 276.944L369.55 277.808L369.838 284.432C370.606 300.432 371.054 311.056 371.182 316.304L371.662 316.784C376.654 316.72 380.686 315.824 383.758 314.096C383.822 312.944 383.982 310.32 384.238 306.224ZM102.927 283.28V338H120.207V283.28H102.927Z" fill="#6B21A8"/>
</g>
<defs>
<filter id="filter0_d_639_2122" x="0.890869" y="271.673" width="393.307" height="79.9032" filterUnits="userSpaceOnUse" color-interpolation-filters="sRGB">
<feFlood flood-opacity="0" result="BackgroundImageFix"/>
<feColorMatrix in="SourceAlpha" type="matrix" values="0 0 0 0 0 0 0 0 0 0 0 0 0 0 0 0 0 0 127 0" result="hardAlpha"/>
<feOffset dy="4"/>
<feGaussianBlur stdDeviation="2"/>
<feComposite in2="hardAlpha" operator="out"/>
<feColorMatrix type="matrix" values="0 0 0 0 0 0 0 0 0 0 0 0 0 0 0 0 0 0 0.25 0"/>
<feBlend mode="normal" in2="BackgroundImageFix" result="effect1_dropShadow_639_2122"/>
<feBlend mode="normal" in="SourceGraphic" in2="effect1_dropShadow_639_2122" result="shape"/>
</filter>
</defs>
</svg>
