<svg width="79" height="79" viewBox="0 0 79 79" fill="none" xmlns="http://www.w3.org/2000/svg">
<path d="M39.5 39.5C35.8791 39.5 32.7795 38.2108 30.201 35.6323C27.6225 33.0538 26.3333 29.9542 26.3333 26.3334C26.3333 22.7125 27.6225 19.6129 30.201 17.0344C32.7795 14.4559 35.8791 13.1667 39.5 13.1667C43.1208 13.1667 46.2204 14.4559 48.7989 17.0344C51.3774 19.6129 52.6666 22.7125 52.6666 26.3334C52.6666 29.9542 51.3774 33.0538 48.7989 35.6323C46.2204 38.2108 43.1208 39.5 39.5 39.5ZM13.1666 65.8334V56.6167C13.1666 54.7514 13.6472 53.0365 14.6084 51.4718C15.5695 49.9072 16.8445 48.7145 18.4333 47.8938C21.8347 46.1931 25.2909 44.917 28.802 44.0656C32.3132 43.2141 35.8791 42.7895 39.5 42.7917C43.1208 42.7917 46.6868 43.2174 50.1979 44.0689C53.709 44.9203 57.1652 46.1953 60.5666 47.8938C62.1576 48.7167 63.4337 49.9105 64.3948 51.4751C65.356 53.0397 65.8355 54.7536 65.8333 56.6167V65.8334H13.1666Z" fill="white"/>
</svg>
