<svg width="395" height="411" viewBox="0 0 395 411" fill="none" xmlns="http://www.w3.org/2000/svg">
<g filter="url(#filter0_d_639_2124)">
<path fill-rule="evenodd" clip-rule="evenodd" d="M51.1638 402H21.5818L4.89087 337.28H33.9506L37.4608 356.632L41.202 337.28H67.4826L71.3092 356.597L74.8591 337.28H148.848L160.925 355.676V337.28H210.254L222.331 355.676V337.28H297.097V337.919L299.054 337.774C306.903 337.19 314.26 336.896 321.121 336.896C327.409 336.896 332.812 337.418 337.175 338.596C341.699 339.753 345.584 341.924 348.283 345.428C351.115 348.955 352.233 353.448 352.233 358.312C352.233 362.944 351.169 367.252 348.449 370.652L348.427 370.679L348.405 370.707C347.885 371.338 347.32 371.909 346.716 372.425C347.961 373.943 348.854 375.704 349.376 377.664L349.38 377.677L349.383 377.691L355.719 402H327.148L322.99 384.389C322.988 384.378 322.985 384.367 322.982 384.357C322.861 383.873 322.646 383.045 322.334 381.857L322.295 381.712L322.275 381.61C322.09 381.613 321.899 381.616 321.705 381.619V402H224.224L212.363 383.635V402H162.818L150.957 383.635V402H97.9272V357.497L86.4501 402H56.9195L54.1239 387.035L51.1638 402ZM47.0559 397H25.4559L11.3439 342.28H29.7759L37.0719 382.504H37.5519L45.3279 342.28H63.3759L71.3439 382.504H71.6319L79.0239 342.28H96.6879L82.5759 397H61.0719L54.5439 362.056H53.9679L47.0559 397ZM165.541 397H181.861V342.28H165.925V372.616H165.637C164.535 370.473 162.964 367.862 160.925 364.781C160.833 364.642 160.739 364.501 160.645 364.36L146.149 342.28H129.925V397H145.957V374.92L146.053 367.432H146.341L146.343 367.436L150.661 373.96L165.541 397ZM226.947 397H243.267V342.28H227.331V372.616H227.043C225.941 370.473 224.37 367.862 222.331 364.781C222.239 364.642 222.145 364.501 222.051 364.36L207.555 342.28H191.331V397H207.363V374.92L207.459 367.432H207.747L207.75 367.436L212.067 373.96L226.947 397ZM294.425 380.288V358.8H293.545V379.152H274.537V380.288H294.425ZM269.537 385.288V374.152H288.545V363.784H269.537V353.8H292.097V342.28H252.257V397H292.001V385.288H269.537ZM316.705 376.648C320.161 376.648 322.785 376.616 324.577 376.552C325.281 376.744 325.825 377.16 326.209 377.8C326.593 378.376 326.913 379.304 327.169 380.584C327.489 381.8 327.713 382.664 327.841 383.176L331.105 397H349.249L344.545 378.952C344.136 377.418 343.4 376.109 342.338 375.025C342.07 374.752 341.782 374.493 341.473 374.248C340.015 372.981 338.181 372.247 335.971 372.046C335.949 372.044 335.927 372.042 335.905 372.04V371.464C335.922 371.462 335.938 371.46 335.955 371.458C338.832 371.128 341.134 370.341 342.861 369.097C343.501 368.637 344.063 368.114 344.545 367.528C346.337 365.288 347.233 362.216 347.233 358.312C347.233 354.152 346.273 350.888 344.353 348.52C342.497 346.088 339.681 344.392 335.905 343.432C332.129 342.408 327.201 341.896 321.121 341.896C314.401 341.896 307.169 342.184 299.425 342.76V397H316.705V376.648ZM327.745 353.896C329.153 354.856 329.857 356.648 329.857 359.272C329.857 362.088 329.473 363.88 328.705 364.648C327.873 365.48 324.993 365.896 320.065 365.896C318.401 365.896 317.281 365.864 316.705 365.8V352.648C318.881 352.52 320.321 352.456 321.025 352.456C324.161 352.456 326.401 352.936 327.745 353.896ZM321.705 357.466V360.878C322.999 360.847 324.025 360.78 324.809 360.687C324.838 360.306 324.857 359.838 324.857 359.272C324.857 358.551 324.776 358.125 324.715 357.91C324.589 357.858 324.365 357.781 324.009 357.705C323.454 357.586 322.698 357.494 321.705 357.466ZM326.093 360.458C326.097 360.457 326.1 360.456 326.104 360.455C326.123 360.448 326.133 360.444 326.133 360.444C326.133 360.443 326.119 360.447 326.093 360.458ZM366.232 377.425L366.183 375.426C366.057 370.247 365.612 359.682 364.844 343.672L364.843 343.661L364.34 332.09L389.845 330.673L390.096 335.694C390.166 337.102 390.198 339.091 390.198 341.608C390.198 348.41 389.872 356.398 389.227 365.554C388.971 369.645 388.813 372.244 388.75 373.373L388.598 376.11L386.209 377.454C385.202 378.02 384.139 378.507 383.026 378.919C384.136 379.495 385.164 380.26 386.086 381.217C388.434 383.586 389.622 386.583 389.622 389.896C389.622 393.255 388.639 396.481 386.223 399.012L386.183 399.054L386.141 399.096C383.694 401.543 380.541 402.576 377.23 402.576C373.952 402.576 370.919 401.488 368.498 399.177L368.413 399.097L368.333 399.012C365.917 396.481 364.934 393.255 364.934 389.896C364.934 386.564 366.135 383.552 368.51 381.177L368.55 381.137L368.59 381.099C368.817 380.882 369.048 380.675 369.285 380.479L366.232 377.425ZM382.51 384.712C381.166 383.304 379.47 382.6 377.422 382.6C375.31 382.6 373.518 383.304 372.046 384.712C370.638 386.12 369.934 387.848 369.934 389.896C369.934 392.264 370.606 394.152 371.95 395.56C373.358 396.904 375.118 397.576 377.23 397.576C379.47 397.576 381.262 396.904 382.606 395.56C383.95 394.152 384.622 392.264 384.622 389.896C384.622 387.848 383.918 386.12 382.51 384.712ZM384.238 365.224C384.878 356.136 385.198 348.264 385.198 341.608C385.198 341.383 385.198 341.162 385.197 340.946C385.192 338.776 385.16 337.108 385.102 335.944L369.55 336.808L369.838 343.432C370.606 359.432 371.054 370.056 371.182 375.304L371.662 375.784C376.654 375.72 380.686 374.824 383.758 373.096C383.822 371.944 383.982 369.32 384.238 365.224ZM102.927 342.28V397H120.207V342.28H102.927Z" fill="#6B21A8"/>
</g>
<g opacity="0.3">
<line x1="101.873" y1="94.1301" x2="281.581" y2="273.838" stroke="#EC4899" stroke-width="32"/>
<line x1="95.9443" y1="277.947" x2="284.947" y2="88.9444" stroke="#EC4899" stroke-width="32"/>
</g>
<defs>
<filter id="filter0_d_639_2124" x="0.890869" y="330.673" width="393.307" height="79.9032" filterUnits="userSpaceOnUse" color-interpolation-filters="sRGB">
<feFlood flood-opacity="0" result="BackgroundImageFix"/>
<feColorMatrix in="SourceAlpha" type="matrix" values="0 0 0 0 0 0 0 0 0 0 0 0 0 0 0 0 0 0 127 0" result="hardAlpha"/>
<feOffset dy="4"/>
<feGaussianBlur stdDeviation="2"/>
<feComposite in2="hardAlpha" operator="out"/>
<feColorMatrix type="matrix" values="0 0 0 0 0 0 0 0 0 0 0 0 0 0 0 0 0 0 0.25 0"/>
<feBlend mode="normal" in2="BackgroundImageFix" result="effect1_dropShadow_639_2124"/>
<feBlend mode="normal" in="SourceGraphic" in2="effect1_dropShadow_639_2124" result="shape"/>
</filter>
</defs>
</svg>
